{
	"patcher" : 	{
		"fileversion" : 1,
		"rect" : [ 92.0, 63.0, 994.0, 783.0 ],
		"bglocked" : 0,
		"defrect" : [ 92.0, 63.0, 994.0, 783.0 ],
		"openrect" : [ 0.0, 0.0, 0.0, 0.0 ],
		"openinpresentation" : 0,
		"default_fontsize" : 12.0,
		"default_fontface" : 0,
		"default_fontname" : "Arial",
		"gridonopen" : 0,
		"gridsize" : [ 15.0, 15.0 ],
		"gridsnaponopen" : 0,
		"toolbarvisible" : 1,
		"boxanimatetime" : 200,
		"imprint" : 0,
		"enablehscroll" : 1,
		"enablevscroll" : 1,
		"devicewidth" : 0.0,
		"boxes" : [ 			{
				"box" : 				{
					"maxclass" : "preset",
					"patching_rect" : [ 43.0, 72.0, 135.0, 17.0 ],
					"margin" : 4,
					"outlettype" : [ "preset", "int", "preset", "int" ],
					"id" : "obj-1",
					"spacing" : 2,
					"numinlets" : 1,
					"bubblesize" : 8,
					"numoutlets" : 4,
					"preset_data" : [ 						{
							"number" : 1,
							"data" : [ 5, "obj-146", "toggle", "int", 1, 5, "obj-138", "flonum", "float", 26.0, 5, "obj-136", "flonum", "float", 1.0, 5, "obj-135", "flonum", "float", 11.0, 5, "obj-134", "toggle", "int", 1, 5, "obj-122", "flonum", "float", 22.0, 5, "obj-120", "flonum", "float", 6.0, 5, "obj-119", "flonum", "float", 104.0, 5, "obj-117", "toggle", "int", 1, 5, "obj-105", "flonum", "float", 138.0, 5, "obj-103", "flonum", "float", 2.0, 5, "obj-102", "flonum", "float", 34.0, 5, "obj-100", "toggle", "int", 1, 5, "obj-88", "flonum", "float", 69.0, 5, "obj-86", "flonum", "float", 12.0, 5, "obj-85", "flonum", "float", 20.0, 5, "obj-83", "toggle", "int", 1, 5, "obj-68", "toggle", "int", 1, 5, "obj-60", "flonum", "float", 48.0, 5, "obj-58", "flonum", "float", 38.0, 5, "obj-57", "flonum", "float", 20.0, 5, "obj-56", "toggle", "int", 1, 5, "obj-44", "flonum", "float", 69.0, 5, "obj-42", "flonum", "float", 96.0, 5, "obj-41", "flonum", "float", 268.0, 5, "obj-39", "toggle", "int", 1, 5, "obj-27", "flonum", "float", 41.0, 5, "obj-25", "flonum", "float", 43.0, 5, "obj-24", "flonum", "float", 78.0, 5, "obj-22", "toggle", "int", 1, 5, "obj-10", "flonum", "float", 50.0, 5, "obj-8", "flonum", "float", 70.0, 5, "obj-7", "flonum", "float", 68.0, 5, "obj-5", "toggle", "int", 1 ]
						}
, 						{
							"number" : 2,
							"data" : [ 5, "obj-146", "toggle", "int", 1, 5, "obj-138", "flonum", "float", 947.0, 5, "obj-136", "flonum", "float", 146.0, 5, "obj-135", "flonum", "float", 252.0, 5, "obj-134", "toggle", "int", 1, 5, "obj-122", "flonum", "float", 1578.0, 5, "obj-120", "flonum", "float", 5.0, 5, "obj-119", "flonum", "float", 210.0, 5, "obj-117", "toggle", "int", 1, 5, "obj-105", "flonum", "float", 694.0, 5, "obj-103", "flonum", "float", 163.0, 5, "obj-102", "flonum", "float", 218.0, 5, "obj-100", "toggle", "int", 1, 5, "obj-88", "flonum", "float", 2.0, 5, "obj-86", "flonum", "float", 5.0, 5, "obj-85", "flonum", "float", 211.0, 5, "obj-83", "toggle", "int", 1, 5, "obj-68", "toggle", "int", 1, 5, "obj-60", "flonum", "float", 2362.0, 5, "obj-58", "flonum", "float", 25.0, 5, "obj-57", "flonum", "float", 2.0, 5, "obj-56", "toggle", "int", 1, 5, "obj-44", "flonum", "float", 271.0, 5, "obj-42", "flonum", "float", 235.0, 5, "obj-41", "flonum", "float", 268.0, 5, "obj-39", "toggle", "int", 1, 5, "obj-27", "flonum", "float", 16.0, 5, "obj-25", "flonum", "float", 1.0, 5, "obj-24", "flonum", "float", 6.0, 5, "obj-22", "toggle", "int", 1, 5, "obj-10", "flonum", "float", 1237.0, 5, "obj-8", "flonum", "float", 659.0, 5, "obj-7", "flonum", "float", 266.0, 5, "obj-5", "toggle", "int", 1 ]
						}
, 						{
							"number" : 3,
							"data" : [ 5, "obj-146", "toggle", "int", 1, 5, "obj-138", "flonum", "float", 139.0, 5, "obj-136", "flonum", "float", 38.0, 5, "obj-135", "flonum", "float", 144.0, 5, "obj-134", "toggle", "int", 1, 5, "obj-122", "flonum", "float", 46.0, 5, "obj-120", "flonum", "float", 1.0, 5, "obj-119", "flonum", "float", -55.0, 5, "obj-117", "toggle", "int", 1, 5, "obj-105", "flonum", "float", 694.0, 5, "obj-103", "flonum", "float", 163.0, 5, "obj-102", "flonum", "float", 218.0, 5, "obj-100", "toggle", "int", 1, 5, "obj-88", "flonum", "float", 693.0, 5, "obj-86", "flonum", "float", 481.0, 5, "obj-85", "flonum", "float", 51.0, 5, "obj-83", "toggle", "int", 1, 5, "obj-68", "toggle", "int", 1, 5, "obj-60", "flonum", "float", 48.0, 5, "obj-58", "flonum", "float", -16.0, 5, "obj-57", "flonum", "float", 20.0, 5, "obj-56", "toggle", "int", 1, 5, "obj-44", "flonum", "float", -210.0, 5, "obj-42", "flonum", "float", -115.0, 5, "obj-41", "flonum", "float", 268.0, 5, "obj-39", "toggle", "int", 1, 5, "obj-27", "flonum", "float", -516.0, 5, "obj-25", "flonum", "float", -46.0, 5, "obj-24", "flonum", "float", 3.0, 5, "obj-22", "toggle", "int", 1, 5, "obj-10", "flonum", "float", 7714.0, 5, "obj-8", "flonum", "float", 1060.0, 5, "obj-7", "flonum", "float", 68.0, 5, "obj-5", "toggle", "int", 1 ]
						}
, 						{
							"number" : 4,
							"data" : [ 5, "obj-146", "toggle", "int", 1, 5, "obj-138", "flonum", "float", 1.0, 5, "obj-136", "flonum", "float", 1.0, 5, "obj-135", "flonum", "float", 2.0, 5, "obj-134", "toggle", "int", 1, 5, "obj-122", "flonum", "float", 16.0, 5, "obj-120", "flonum", "float", -9.0, 5, "obj-119", "flonum", "float", 1.0, 5, "obj-117", "toggle", "int", 1, 5, "obj-105", "flonum", "float", 40000.0, 5, "obj-103", "flonum", "float", 3000.0, 5, "obj-102", "flonum", "float", 1.0, 5, "obj-100", "toggle", "int", 1, 5, "obj-88", "flonum", "float", 1.0, 5, "obj-86", "flonum", "float", 1.0, 5, "obj-85", "flonum", "float", 1.0, 5, "obj-83", "toggle", "int", 1, 5, "obj-68", "toggle", "int", 1, 5, "obj-60", "flonum", "float", 90.0, 5, "obj-58", "flonum", "float", 19.0, 5, "obj-57", "flonum", "float", 29.0, 5, "obj-56", "toggle", "int", 1, 5, "obj-44", "flonum", "float", 11.0, 5, "obj-42", "flonum", "float", 36.0, 5, "obj-41", "flonum", "float", 5.0, 5, "obj-39", "toggle", "int", 1, 5, "obj-27", "flonum", "float", 4719.0, 5, "obj-25", "flonum", "float", 260.0, 5, "obj-24", "flonum", "float", 19.0, 5, "obj-22", "toggle", "int", 1, 5, "obj-10", "flonum", "float", 1200.0, 5, "obj-8", "flonum", "float", 169.0, 5, "obj-7", "flonum", "float", 12.0, 5, "obj-5", "toggle", "int", 1 ]
						}
 ]
				}

			}
, 			{
				"box" : 				{
					"maxclass" : "comment",
					"text" : "RANDOM GRANULAR MODULE 1",
					"patching_rect" : [ 36.0, 108.0, 248.0, 23.0 ],
					"id" : "obj-2",
					"fontname" : "Arial",
					"textcolor" : [ 1.0, 1.0, 1.0, 1.0 ],
					"frgb" : [ 1.0, 1.0, 1.0, 1.0 ],
					"fontsize" : 14.0,
					"numinlets" : 1,
					"numoutlets" : 0
				}

			}
, 			{
				"box" : 				{
					"maxclass" : "comment",
					"text" : "GRAIN PULSE LENGTH",
					"patching_rect" : [ 32.0, 255.0, 172.0, 23.0 ],
					"id" : "obj-3",
					"fontname" : "Arial",
					"fontsize" : 14.0,
					"numinlets" : 1,
					"numoutlets" : 0
				}

			}
, 			{
				"box" : 				{
					"maxclass" : "comment",
					"text" : "END",
					"patching_rect" : [ 614.0, 283.0, 41.0, 18.0 ],
					"id" : "obj-4",
					"fontname" : "Arial",
					"fontsize" : 10.0,
					"numinlets" : 1,
					"numoutlets" : 0
				}

			}
, 			{
				"box" : 				{
					"maxclass" : "toggle",
					"patching_rect" : [ 704.0, 257.0, 16.0, 16.0 ],
					"outlettype" : [ "int" ],
					"id" : "obj-5",
					"numinlets" : 1,
					"numoutlets" : 1
				}

			}
, 			{
				"box" : 				{
					"maxclass" : "comment",
					"text" : "GRAIN PULSE START",
					"patching_rect" : [ 385.0, 258.0, 172.0, 23.0 ],
					"id" : "obj-6",
					"fontname" : "Arial",
					"fontsize" : 14.0,
					"numinlets" : 1,
					"numoutlets" : 0
				}

			}
, 			{
				"box" : 				{
					"maxclass" : "flonum",
					"patching_rect" : [ 390.0, 301.0, 79.0, 18.0 ],
					"outlettype" : [ "float", "bang" ],
					"id" : "obj-7",
					"fontname" : "Arial",
					"htextcolor" : [ 0.870588, 0.870588, 0.870588, 1.0 ],
					"triscale" : 0.9,
					"bgcolor" : [ 0.866667, 0.866667, 0.866667, 1.0 ],
					"fontsize" : 10.0,
					"numinlets" : 1,
					"numoutlets" : 2
				}

			}
, 			{
				"box" : 				{
					"maxclass" : "flonum",
					"patching_rect" : [ 502.0, 301.0, 79.0, 18.0 ],
					"outlettype" : [ "float", "bang" ],
					"id" : "obj-8",
					"fontname" : "Arial",
					"htextcolor" : [ 0.870588, 0.870588, 0.870588, 1.0 ],
					"triscale" : 0.9,
					"bgcolor" : [ 0.866667, 0.866667, 0.866667, 1.0 ],
					"fontsize" : 10.0,
					"numinlets" : 1,
					"numoutlets" : 2
				}

			}
, 			{
				"box" : 				{
					"maxclass" : "comment",
					"text" : "START",
					"patching_rect" : [ 501.0, 283.0, 46.0, 18.0 ],
					"id" : "obj-9",
					"fontname" : "Arial",
					"fontsize" : 10.0,
					"numinlets" : 1,
					"numoutlets" : 0
				}

			}
, 			{
				"box" : 				{
					"maxclass" : "flonum",
					"patching_rect" : [ 615.0, 301.0, 79.0, 18.0 ],
					"outlettype" : [ "float", "bang" ],
					"id" : "obj-10",
					"fontname" : "Arial",
					"htextcolor" : [ 0.870588, 0.870588, 0.870588, 1.0 ],
					"triscale" : 0.9,
					"bgcolor" : [ 0.866667, 0.866667, 0.866667, 1.0 ],
					"fontsize" : 10.0,
					"numinlets" : 1,
					"numoutlets" : 2
				}

			}
, 			{
				"box" : 				{
					"maxclass" : "comment",
					"text" : "RANDOM SPEED",
					"patching_rect" : [ 389.0, 283.0, 100.0, 18.0 ],
					"id" : "obj-11",
					"fontname" : "Arial",
					"fontsize" : 10.0,
					"numinlets" : 1,
					"numoutlets" : 0
				}

			}
, 			{
				"box" : 				{
					"maxclass" : "newobj",
					"text" : "randomizerMitchB",
					"linecount" : 2,
					"patching_rect" : [ 401.0, 333.0, 80.0, 27.0 ],
					"outlettype" : [ "float" ],
					"id" : "obj-12",
					"fontname" : "Arial",
					"fontsize" : 9.0,
					"numinlets" : 4,
					"numoutlets" : 1
				}

			}
, 			{
				"box" : 				{
					"maxclass" : "panel",
					"patching_rect" : [ 387.0, 281.0, 110.0, 19.0 ],
					"id" : "obj-13",
					"rounded" : 0,
					"bgcolor" : [ 0.905882, 0.905882, 0.905882, 1.0 ],
					"border" : 1,
					"numinlets" : 1,
					"numoutlets" : 0
				}

			}
, 			{
				"box" : 				{
					"maxclass" : "panel",
					"patching_rect" : [ 387.0, 287.0, 110.0, 32.0 ],
					"id" : "obj-14",
					"rounded" : 0,
					"bgcolor" : [ 0.74902, 0.74902, 0.74902, 1.0 ],
					"border" : 1,
					"numinlets" : 1,
					"numoutlets" : 0
				}

			}
, 			{
				"box" : 				{
					"maxclass" : "panel",
					"patching_rect" : [ 389.0, 329.0, 333.0, 28.0 ],
					"id" : "obj-15",
					"rounded" : 0,
					"bgcolor" : [ 0.517647, 0.517647, 0.517647, 1.0 ],
					"border" : 1,
					"numinlets" : 1,
					"numoutlets" : 0
				}

			}
, 			{
				"box" : 				{
					"maxclass" : "panel",
					"patching_rect" : [ 612.0, 281.0, 110.0, 19.0 ],
					"id" : "obj-16",
					"rounded" : 0,
					"bgcolor" : [ 0.905882, 0.905882, 0.905882, 1.0 ],
					"border" : 1,
					"numinlets" : 1,
					"numoutlets" : 0
				}

			}
, 			{
				"box" : 				{
					"maxclass" : "panel",
					"patching_rect" : [ 612.0, 287.0, 110.0, 32.0 ],
					"id" : "obj-17",
					"rounded" : 0,
					"bgcolor" : [ 0.74902, 0.74902, 0.74902, 1.0 ],
					"border" : 1,
					"numinlets" : 1,
					"numoutlets" : 0
				}

			}
, 			{
				"box" : 				{
					"maxclass" : "panel",
					"patching_rect" : [ 499.0, 281.0, 110.0, 19.0 ],
					"id" : "obj-18",
					"rounded" : 0,
					"bgcolor" : [ 0.905882, 0.905882, 0.905882, 1.0 ],
					"border" : 1,
					"numinlets" : 1,
					"numoutlets" : 0
				}

			}
, 			{
				"box" : 				{
					"maxclass" : "panel",
					"patching_rect" : [ 499.0, 287.0, 110.0, 32.0 ],
					"id" : "obj-19",
					"rounded" : 0,
					"bgcolor" : [ 0.74902, 0.74902, 0.74902, 1.0 ],
					"border" : 1,
					"numinlets" : 1,
					"numoutlets" : 0
				}

			}
, 			{
				"box" : 				{
					"maxclass" : "panel",
					"patching_rect" : [ 381.0, 252.0, 349.0, 114.0 ],
					"id" : "obj-20",
					"rounded" : 0,
					"bgcolor" : [ 0.87451, 0.87451, 0.87451, 1.0 ],
					"border" : 1,
					"numinlets" : 1,
					"numoutlets" : 0
				}

			}
, 			{
				"box" : 				{
					"maxclass" : "comment",
					"text" : "END",
					"patching_rect" : [ 261.0, 283.0, 41.0, 18.0 ],
					"id" : "obj-21",
					"fontname" : "Arial",
					"fontsize" : 10.0,
					"numinlets" : 1,
					"numoutlets" : 0
				}

			}
, 			{
				"box" : 				{
					"maxclass" : "toggle",
					"patching_rect" : [ 351.0, 257.0, 16.0, 16.0 ],
					"outlettype" : [ "int" ],
					"id" : "obj-22",
					"numinlets" : 1,
					"numoutlets" : 1
				}

			}
, 			{
				"box" : 				{
					"maxclass" : "comment",
					"text" : "TRAIN PULSE INTERVAL",
					"patching_rect" : [ 33.0, 141.0, 172.0, 23.0 ],
					"id" : "obj-23",
					"fontname" : "Arial",
					"fontsize" : 14.0,
					"numinlets" : 1,
					"numoutlets" : 0
				}

			}
, 			{
				"box" : 				{
					"maxclass" : "flonum",
					"patching_rect" : [ 37.0, 301.0, 79.0, 18.0 ],
					"outlettype" : [ "float", "bang" ],
					"id" : "obj-24",
					"fontname" : "Arial",
					"htextcolor" : [ 0.870588, 0.870588, 0.870588, 1.0 ],
					"triscale" : 0.9,
					"bgcolor" : [ 0.866667, 0.866667, 0.866667, 1.0 ],
					"fontsize" : 10.0,
					"numinlets" : 1,
					"numoutlets" : 2
				}

			}
, 			{
				"box" : 				{
					"maxclass" : "flonum",
					"patching_rect" : [ 149.0, 301.0, 79.0, 18.0 ],
					"outlettype" : [ "float", "bang" ],
					"id" : "obj-25",
					"fontname" : "Arial",
					"htextcolor" : [ 0.870588, 0.870588, 0.870588, 1.0 ],
					"triscale" : 0.9,
					"bgcolor" : [ 0.866667, 0.866667, 0.866667, 1.0 ],
					"fontsize" : 10.0,
					"numinlets" : 1,
					"numoutlets" : 2
				}

			}
, 			{
				"box" : 				{
					"maxclass" : "comment",
					"text" : "START",
					"patching_rect" : [ 148.0, 283.0, 46.0, 18.0 ],
					"id" : "obj-26",
					"fontname" : "Arial",
					"fontsize" : 10.0,
					"numinlets" : 1,
					"numoutlets" : 0
				}

			}
, 			{
				"box" : 				{
					"maxclass" : "flonum",
					"patching_rect" : [ 262.0, 301.0, 79.0, 18.0 ],
					"outlettype" : [ "float", "bang" ],
					"id" : "obj-27",
					"fontname" : "Arial",
					"htextcolor" : [ 0.870588, 0.870588, 0.870588, 1.0 ],
					"triscale" : 0.9,
					"bgcolor" : [ 0.866667, 0.866667, 0.866667, 1.0 ],
					"fontsize" : 10.0,
					"numinlets" : 1,
					"numoutlets" : 2
				}

			}
, 			{
				"box" : 				{
					"maxclass" : "comment",
					"text" : "RANDOM SPEED",
					"patching_rect" : [ 36.0, 283.0, 100.0, 18.0 ],
					"id" : "obj-28",
					"fontname" : "Arial",
					"fontsize" : 10.0,
					"numinlets" : 1,
					"numoutlets" : 0
				}

			}
, 			{
				"box" : 				{
					"maxclass" : "newobj",
					"text" : "randomizerMitchB",
					"linecount" : 2,
					"patching_rect" : [ 48.0, 333.0, 80.0, 27.0 ],
					"outlettype" : [ "float" ],
					"id" : "obj-29",
					"fontname" : "Arial",
					"fontsize" : 9.0,
					"numinlets" : 4,
					"numoutlets" : 1
				}

			}
, 			{
				"box" : 				{
					"maxclass" : "panel",
					"patching_rect" : [ 34.0, 281.0, 110.0, 19.0 ],
					"id" : "obj-30",
					"rounded" : 0,
					"bgcolor" : [ 0.905882, 0.905882, 0.905882, 1.0 ],
					"border" : 1,
					"numinlets" : 1,
					"numoutlets" : 0
				}

			}
, 			{
				"box" : 				{
					"maxclass" : "panel",
					"patching_rect" : [ 34.0, 287.0, 110.0, 32.0 ],
					"id" : "obj-31",
					"rounded" : 0,
					"bgcolor" : [ 0.74902, 0.74902, 0.74902, 1.0 ],
					"border" : 1,
					"numinlets" : 1,
					"numoutlets" : 0
				}

			}
, 			{
				"box" : 				{
					"maxclass" : "panel",
					"patching_rect" : [ 36.0, 329.0, 333.0, 28.0 ],
					"id" : "obj-32",
					"rounded" : 0,
					"bgcolor" : [ 0.517647, 0.517647, 0.517647, 1.0 ],
					"border" : 1,
					"numinlets" : 1,
					"numoutlets" : 0
				}

			}
, 			{
				"box" : 				{
					"maxclass" : "panel",
					"patching_rect" : [ 259.0, 281.0, 110.0, 19.0 ],
					"id" : "obj-33",
					"rounded" : 0,
					"bgcolor" : [ 0.905882, 0.905882, 0.905882, 1.0 ],
					"border" : 1,
					"numinlets" : 1,
					"numoutlets" : 0
				}

			}
, 			{
				"box" : 				{
					"maxclass" : "panel",
					"patching_rect" : [ 259.0, 287.0, 110.0, 32.0 ],
					"id" : "obj-34",
					"rounded" : 0,
					"bgcolor" : [ 0.74902, 0.74902, 0.74902, 1.0 ],
					"border" : 1,
					"numinlets" : 1,
					"numoutlets" : 0
				}

			}
, 			{
				"box" : 				{
					"maxclass" : "panel",
					"patching_rect" : [ 146.0, 281.0, 110.0, 19.0 ],
					"id" : "obj-35",
					"rounded" : 0,
					"bgcolor" : [ 0.905882, 0.905882, 0.905882, 1.0 ],
					"border" : 1,
					"numinlets" : 1,
					"numoutlets" : 0
				}

			}
, 			{
				"box" : 				{
					"maxclass" : "panel",
					"patching_rect" : [ 146.0, 287.0, 110.0, 32.0 ],
					"id" : "obj-36",
					"rounded" : 0,
					"bgcolor" : [ 0.74902, 0.74902, 0.74902, 1.0 ],
					"border" : 1,
					"numinlets" : 1,
					"numoutlets" : 0
				}

			}
, 			{
				"box" : 				{
					"maxclass" : "panel",
					"patching_rect" : [ 28.0, 252.0, 349.0, 114.0 ],
					"id" : "obj-37",
					"rounded" : 0,
					"bgcolor" : [ 0.87451, 0.87451, 0.87451, 1.0 ],
					"border" : 1,
					"numinlets" : 1,
					"numoutlets" : 0
				}

			}
, 			{
				"box" : 				{
					"maxclass" : "comment",
					"text" : "END",
					"patching_rect" : [ 615.0, 166.0, 41.0, 18.0 ],
					"id" : "obj-38",
					"fontname" : "Arial",
					"fontsize" : 10.0,
					"numinlets" : 1,
					"numoutlets" : 0
				}

			}
, 			{
				"box" : 				{
					"maxclass" : "toggle",
					"patching_rect" : [ 705.0, 140.0, 16.0, 16.0 ],
					"outlettype" : [ "int" ],
					"id" : "obj-39",
					"numinlets" : 1,
					"numoutlets" : 1
				}

			}
, 			{
				"box" : 				{
					"maxclass" : "comment",
					"text" : "GRAIN PULSE PITCH",
					"patching_rect" : [ 386.0, 141.0, 172.0, 23.0 ],
					"id" : "obj-40",
					"fontname" : "Arial",
					"fontsize" : 14.0,
					"numinlets" : 1,
					"numoutlets" : 0
				}

			}
, 			{
				"box" : 				{
					"maxclass" : "flonum",
					"patching_rect" : [ 391.0, 184.0, 79.0, 18.0 ],
					"outlettype" : [ "float", "bang" ],
					"id" : "obj-41",
					"fontname" : "Arial",
					"htextcolor" : [ 0.870588, 0.870588, 0.870588, 1.0 ],
					"triscale" : 0.9,
					"bgcolor" : [ 0.866667, 0.866667, 0.866667, 1.0 ],
					"fontsize" : 10.0,
					"numinlets" : 1,
					"numoutlets" : 2
				}

			}
, 			{
				"box" : 				{
					"maxclass" : "flonum",
					"patching_rect" : [ 503.0, 184.0, 79.0, 18.0 ],
					"outlettype" : [ "float", "bang" ],
					"id" : "obj-42",
					"fontname" : "Arial",
					"htextcolor" : [ 0.870588, 0.870588, 0.870588, 1.0 ],
					"triscale" : 0.9,
					"bgcolor" : [ 0.866667, 0.866667, 0.866667, 1.0 ],
					"fontsize" : 10.0,
					"numinlets" : 1,
					"numoutlets" : 2
				}

			}
, 			{
				"box" : 				{
					"maxclass" : "comment",
					"text" : "START",
					"patching_rect" : [ 502.0, 166.0, 46.0, 18.0 ],
					"id" : "obj-43",
					"fontname" : "Arial",
					"fontsize" : 10.0,
					"numinlets" : 1,
					"numoutlets" : 0
				}

			}
, 			{
				"box" : 				{
					"maxclass" : "flonum",
					"patching_rect" : [ 616.0, 184.0, 79.0, 18.0 ],
					"outlettype" : [ "float", "bang" ],
					"id" : "obj-44",
					"fontname" : "Arial",
					"htextcolor" : [ 0.870588, 0.870588, 0.870588, 1.0 ],
					"triscale" : 0.9,
					"bgcolor" : [ 0.866667, 0.866667, 0.866667, 1.0 ],
					"fontsize" : 10.0,
					"numinlets" : 1,
					"numoutlets" : 2
				}

			}
, 			{
				"box" : 				{
					"maxclass" : "comment",
					"text" : "RANDOM SPEED",
					"patching_rect" : [ 390.0, 166.0, 100.0, 18.0 ],
					"id" : "obj-45",
					"fontname" : "Arial",
					"fontsize" : 10.0,
					"numinlets" : 1,
					"numoutlets" : 0
				}

			}
, 			{
				"box" : 				{
					"maxclass" : "newobj",
					"text" : "randomizerMitchB",
					"linecount" : 2,
					"patching_rect" : [ 402.0, 216.0, 80.0, 27.0 ],
					"outlettype" : [ "float" ],
					"id" : "obj-46",
					"fontname" : "Arial",
					"fontsize" : 9.0,
					"numinlets" : 4,
					"numoutlets" : 1
				}

			}
, 			{
				"box" : 				{
					"maxclass" : "panel",
					"patching_rect" : [ 388.0, 164.0, 110.0, 19.0 ],
					"id" : "obj-47",
					"rounded" : 0,
					"bgcolor" : [ 0.905882, 0.905882, 0.905882, 1.0 ],
					"border" : 1,
					"numinlets" : 1,
					"numoutlets" : 0
				}

			}
, 			{
				"box" : 				{
					"maxclass" : "panel",
					"patching_rect" : [ 388.0, 170.0, 110.0, 32.0 ],
					"id" : "obj-48",
					"rounded" : 0,
					"bgcolor" : [ 0.74902, 0.74902, 0.74902, 1.0 ],
					"border" : 1,
					"numinlets" : 1,
					"numoutlets" : 0
				}

			}
, 			{
				"box" : 				{
					"maxclass" : "panel",
					"patching_rect" : [ 390.0, 212.0, 333.0, 28.0 ],
					"id" : "obj-49",
					"rounded" : 0,
					"bgcolor" : [ 0.517647, 0.517647, 0.517647, 1.0 ],
					"border" : 1,
					"numinlets" : 1,
					"numoutlets" : 0
				}

			}
, 			{
				"box" : 				{
					"maxclass" : "panel",
					"patching_rect" : [ 613.0, 164.0, 110.0, 19.0 ],
					"id" : "obj-50",
					"rounded" : 0,
					"bgcolor" : [ 0.905882, 0.905882, 0.905882, 1.0 ],
					"border" : 1,
					"numinlets" : 1,
					"numoutlets" : 0
				}

			}
, 			{
				"box" : 				{
					"maxclass" : "panel",
					"patching_rect" : [ 613.0, 170.0, 110.0, 32.0 ],
					"id" : "obj-51",
					"rounded" : 0,
					"bgcolor" : [ 0.74902, 0.74902, 0.74902, 1.0 ],
					"border" : 1,
					"numinlets" : 1,
					"numoutlets" : 0
				}

			}
, 			{
				"box" : 				{
					"maxclass" : "panel",
					"patching_rect" : [ 500.0, 164.0, 110.0, 19.0 ],
					"id" : "obj-52",
					"rounded" : 0,
					"bgcolor" : [ 0.905882, 0.905882, 0.905882, 1.0 ],
					"border" : 1,
					"numinlets" : 1,
					"numoutlets" : 0
				}

			}
, 			{
				"box" : 				{
					"maxclass" : "panel",
					"patching_rect" : [ 500.0, 170.0, 110.0, 32.0 ],
					"id" : "obj-53",
					"rounded" : 0,
					"bgcolor" : [ 0.74902, 0.74902, 0.74902, 1.0 ],
					"border" : 1,
					"numinlets" : 1,
					"numoutlets" : 0
				}

			}
, 			{
				"box" : 				{
					"maxclass" : "panel",
					"patching_rect" : [ 382.0, 135.0, 349.0, 114.0 ],
					"id" : "obj-54",
					"rounded" : 0,
					"bgcolor" : [ 0.87451, 0.87451, 0.87451, 1.0 ],
					"border" : 1,
					"numinlets" : 1,
					"numoutlets" : 0
				}

			}
, 			{
				"box" : 				{
					"maxclass" : "comment",
					"text" : "END",
					"patching_rect" : [ 262.0, 166.0, 41.0, 18.0 ],
					"id" : "obj-55",
					"fontname" : "Arial",
					"fontsize" : 10.0,
					"numinlets" : 1,
					"numoutlets" : 0
				}

			}
, 			{
				"box" : 				{
					"maxclass" : "toggle",
					"patching_rect" : [ 352.0, 140.0, 16.0, 16.0 ],
					"outlettype" : [ "int" ],
					"id" : "obj-56",
					"numinlets" : 1,
					"numoutlets" : 1
				}

			}
, 			{
				"box" : 				{
					"maxclass" : "flonum",
					"patching_rect" : [ 38.0, 184.0, 79.0, 18.0 ],
					"outlettype" : [ "float", "bang" ],
					"id" : "obj-57",
					"fontname" : "Arial",
					"htextcolor" : [ 0.870588, 0.870588, 0.870588, 1.0 ],
					"triscale" : 0.9,
					"bgcolor" : [ 0.866667, 0.866667, 0.866667, 1.0 ],
					"fontsize" : 10.0,
					"numinlets" : 1,
					"numoutlets" : 2
				}

			}
, 			{
				"box" : 				{
					"maxclass" : "flonum",
					"patching_rect" : [ 150.0, 184.0, 79.0, 18.0 ],
					"outlettype" : [ "float", "bang" ],
					"id" : "obj-58",
					"fontname" : "Arial",
					"htextcolor" : [ 0.870588, 0.870588, 0.870588, 1.0 ],
					"triscale" : 0.9,
					"bgcolor" : [ 0.866667, 0.866667, 0.866667, 1.0 ],
					"fontsize" : 10.0,
					"numinlets" : 1,
					"numoutlets" : 2
				}

			}
, 			{
				"box" : 				{
					"maxclass" : "comment",
					"text" : "START",
					"patching_rect" : [ 149.0, 166.0, 46.0, 18.0 ],
					"id" : "obj-59",
					"fontname" : "Arial",
					"fontsize" : 10.0,
					"numinlets" : 1,
					"numoutlets" : 0
				}

			}
, 			{
				"box" : 				{
					"maxclass" : "flonum",
					"patching_rect" : [ 263.0, 184.0, 79.0, 18.0 ],
					"outlettype" : [ "float", "bang" ],
					"id" : "obj-60",
					"fontname" : "Arial",
					"htextcolor" : [ 0.870588, 0.870588, 0.870588, 1.0 ],
					"triscale" : 0.9,
					"bgcolor" : [ 0.866667, 0.866667, 0.866667, 1.0 ],
					"fontsize" : 10.0,
					"numinlets" : 1,
					"numoutlets" : 2
				}

			}
, 			{
				"box" : 				{
					"maxclass" : "comment",
					"text" : "RANDOM SPEED",
					"patching_rect" : [ 37.0, 166.0, 100.0, 18.0 ],
					"id" : "obj-61",
					"fontname" : "Arial",
					"fontsize" : 10.0,
					"numinlets" : 1,
					"numoutlets" : 0
				}

			}
, 			{
				"box" : 				{
					"maxclass" : "newobj",
					"text" : "randomizerMitchB",
					"linecount" : 2,
					"patching_rect" : [ 49.0, 216.0, 80.0, 27.0 ],
					"outlettype" : [ "float" ],
					"id" : "obj-62",
					"fontname" : "Arial",
					"fontsize" : 9.0,
					"numinlets" : 4,
					"numoutlets" : 1
				}

			}
, 			{
				"box" : 				{
					"maxclass" : "newobj",
					"text" : "gate~",
					"patching_rect" : [ 757.0, 222.0, 61.0, 18.0 ],
					"outlettype" : [ "signal" ],
					"id" : "obj-63",
					"fontname" : "Arial",
					"fontsize" : 10.0,
					"numinlets" : 2,
					"numoutlets" : 1
				}

			}
, 			{
				"box" : 				{
					"maxclass" : "newobj",
					"text" : "train~",
					"patching_rect" : [ 760.0, 178.0, 60.0, 18.0 ],
					"outlettype" : [ "signal", "bang" ],
					"id" : "obj-64",
					"fontname" : "Arial",
					"fontsize" : 10.0,
					"numinlets" : 3,
					"numoutlets" : 2
				}

			}
, 			{
				"box" : 				{
					"maxclass" : "newobj",
					"text" : "buffer~ sampleA2 gauss",
					"patching_rect" : [ 337.0, 109.0, 119.0, 18.0 ],
					"outlettype" : [ "float", "bang" ],
					"id" : "obj-65",
					"fontname" : "Arial",
					"fontsize" : 10.0,
					"numinlets" : 1,
					"numoutlets" : 2
				}

			}
, 			{
				"box" : 				{
					"maxclass" : "newobj",
					"text" : "buffer~ sampleA1 prabhali.wav",
					"patching_rect" : [ 556.0, 108.0, 153.0, 18.0 ],
					"outlettype" : [ "float", "bang" ],
					"id" : "obj-66",
					"fontname" : "Arial",
					"fontsize" : 10.0,
					"numinlets" : 1,
					"numoutlets" : 2
				}

			}
, 			{
				"box" : 				{
					"maxclass" : "newobj",
					"text" : "grain.pulse~ sampleA1 sampleA2",
					"patching_rect" : [ 741.0, 259.0, 165.0, 18.0 ],
					"outlettype" : [ "signal", "signal", "" ],
					"id" : "obj-67",
					"fontname" : "Arial",
					"fontsize" : 10.0,
					"numinlets" : 4,
					"numoutlets" : 3
				}

			}
, 			{
				"box" : 				{
					"maxclass" : "toggle",
					"patching_rect" : [ 880.0, 98.0, 31.0, 31.0 ],
					"outlettype" : [ "int" ],
					"id" : "obj-68",
					"numinlets" : 1,
					"numoutlets" : 1
				}

			}
, 			{
				"box" : 				{
					"maxclass" : "panel",
					"patching_rect" : [ 35.0, 164.0, 110.0, 19.0 ],
					"id" : "obj-69",
					"rounded" : 0,
					"bgcolor" : [ 0.905882, 0.905882, 0.905882, 1.0 ],
					"border" : 1,
					"numinlets" : 1,
					"numoutlets" : 0
				}

			}
, 			{
				"box" : 				{
					"maxclass" : "panel",
					"patching_rect" : [ 35.0, 170.0, 110.0, 32.0 ],
					"id" : "obj-70",
					"rounded" : 0,
					"bgcolor" : [ 0.74902, 0.74902, 0.74902, 1.0 ],
					"border" : 1,
					"numinlets" : 1,
					"numoutlets" : 0
				}

			}
, 			{
				"box" : 				{
					"maxclass" : "panel",
					"patching_rect" : [ 37.0, 212.0, 333.0, 28.0 ],
					"id" : "obj-71",
					"rounded" : 0,
					"bgcolor" : [ 0.517647, 0.517647, 0.517647, 1.0 ],
					"border" : 1,
					"numinlets" : 1,
					"numoutlets" : 0
				}

			}
, 			{
				"box" : 				{
					"maxclass" : "panel",
					"patching_rect" : [ 260.0, 164.0, 110.0, 19.0 ],
					"id" : "obj-72",
					"rounded" : 0,
					"bgcolor" : [ 0.905882, 0.905882, 0.905882, 1.0 ],
					"border" : 1,
					"numinlets" : 1,
					"numoutlets" : 0
				}

			}
, 			{
				"box" : 				{
					"maxclass" : "panel",
					"patching_rect" : [ 260.0, 170.0, 110.0, 32.0 ],
					"id" : "obj-73",
					"rounded" : 0,
					"bgcolor" : [ 0.74902, 0.74902, 0.74902, 1.0 ],
					"border" : 1,
					"numinlets" : 1,
					"numoutlets" : 0
				}

			}
, 			{
				"box" : 				{
					"maxclass" : "panel",
					"patching_rect" : [ 147.0, 164.0, 110.0, 19.0 ],
					"id" : "obj-74",
					"rounded" : 0,
					"bgcolor" : [ 0.905882, 0.905882, 0.905882, 1.0 ],
					"border" : 1,
					"numinlets" : 1,
					"numoutlets" : 0
				}

			}
, 			{
				"box" : 				{
					"maxclass" : "panel",
					"patching_rect" : [ 147.0, 170.0, 110.0, 32.0 ],
					"id" : "obj-75",
					"rounded" : 0,
					"bgcolor" : [ 0.74902, 0.74902, 0.74902, 1.0 ],
					"border" : 1,
					"numinlets" : 1,
					"numoutlets" : 0
				}

			}
, 			{
				"box" : 				{
					"maxclass" : "panel",
					"patching_rect" : [ 29.0, 135.0, 349.0, 114.0 ],
					"id" : "obj-76",
					"rounded" : 0,
					"bgcolor" : [ 0.87451, 0.87451, 0.87451, 1.0 ],
					"border" : 1,
					"numinlets" : 1,
					"numoutlets" : 0
				}

			}
, 			{
				"box" : 				{
					"maxclass" : "comment",
					"text" : "GRANULAR",
					"patching_rect" : [ 744.0, 144.0, 100.0, 17.0 ],
					"id" : "obj-77",
					"fontname" : "Arial",
					"fontsize" : 9.0,
					"numinlets" : 1,
					"numoutlets" : 0
				}

			}
, 			{
				"box" : 				{
					"maxclass" : "panel",
					"patching_rect" : [ 735.0, 134.0, 175.0, 233.0 ],
					"id" : "obj-78",
					"rounded" : 0,
					"bgcolor" : [ 0.87451, 0.87451, 0.87451, 1.0 ],
					"border" : 1,
					"numinlets" : 1,
					"numoutlets" : 0
				}

			}
, 			{
				"box" : 				{
					"maxclass" : "panel",
					"patching_rect" : [ 19.0, 95.0, 900.0, 284.0 ],
					"id" : "obj-79",
					"rounded" : 0,
					"bgcolor" : [ 0.419608, 0.419608, 0.419608, 1.0 ],
					"border" : 1,
					"numinlets" : 1,
					"numoutlets" : 0
				}

			}
, 			{
				"box" : 				{
					"maxclass" : "comment",
					"text" : "RANDOM GRANULAR MODULE 2",
					"patching_rect" : [ 33.0, 404.0, 248.0, 23.0 ],
					"id" : "obj-80",
					"fontname" : "Arial",
					"textcolor" : [ 1.0, 1.0, 1.0, 1.0 ],
					"frgb" : [ 1.0, 1.0, 1.0, 1.0 ],
					"fontsize" : 14.0,
					"numinlets" : 1,
					"numoutlets" : 0
				}

			}
, 			{
				"box" : 				{
					"maxclass" : "comment",
					"text" : "GRAIN PULSE LENGTH",
					"patching_rect" : [ 32.0, 549.0, 172.0, 23.0 ],
					"id" : "obj-81",
					"fontname" : "Arial",
					"fontsize" : 14.0,
					"numinlets" : 1,
					"numoutlets" : 0
				}

			}
, 			{
				"box" : 				{
					"maxclass" : "comment",
					"text" : "END",
					"patching_rect" : [ 614.0, 577.0, 41.0, 18.0 ],
					"id" : "obj-82",
					"fontname" : "Arial",
					"fontsize" : 10.0,
					"numinlets" : 1,
					"numoutlets" : 0
				}

			}
, 			{
				"box" : 				{
					"maxclass" : "toggle",
					"patching_rect" : [ 704.0, 551.0, 16.0, 16.0 ],
					"outlettype" : [ "int" ],
					"id" : "obj-83",
					"numinlets" : 1,
					"numoutlets" : 1
				}

			}
, 			{
				"box" : 				{
					"maxclass" : "comment",
					"text" : "GRAIN PULSE START",
					"patching_rect" : [ 385.0, 552.0, 172.0, 23.0 ],
					"id" : "obj-84",
					"fontname" : "Arial",
					"fontsize" : 14.0,
					"numinlets" : 1,
					"numoutlets" : 0
				}

			}
, 			{
				"box" : 				{
					"maxclass" : "flonum",
					"patching_rect" : [ 390.0, 595.0, 79.0, 18.0 ],
					"outlettype" : [ "float", "bang" ],
					"id" : "obj-85",
					"fontname" : "Arial",
					"htextcolor" : [ 0.870588, 0.870588, 0.870588, 1.0 ],
					"triscale" : 0.9,
					"bgcolor" : [ 0.866667, 0.866667, 0.866667, 1.0 ],
					"fontsize" : 10.0,
					"numinlets" : 1,
					"numoutlets" : 2
				}

			}
, 			{
				"box" : 				{
					"maxclass" : "flonum",
					"patching_rect" : [ 502.0, 595.0, 79.0, 18.0 ],
					"outlettype" : [ "float", "bang" ],
					"id" : "obj-86",
					"fontname" : "Arial",
					"htextcolor" : [ 0.870588, 0.870588, 0.870588, 1.0 ],
					"triscale" : 0.9,
					"bgcolor" : [ 0.866667, 0.866667, 0.866667, 1.0 ],
					"fontsize" : 10.0,
					"numinlets" : 1,
					"numoutlets" : 2
				}

			}
, 			{
				"box" : 				{
					"maxclass" : "comment",
					"text" : "START",
					"patching_rect" : [ 501.0, 577.0, 46.0, 18.0 ],
					"id" : "obj-87",
					"fontname" : "Arial",
					"fontsize" : 10.0,
					"numinlets" : 1,
					"numoutlets" : 0
				}

			}
, 			{
				"box" : 				{
					"maxclass" : "flonum",
					"patching_rect" : [ 615.0, 595.0, 79.0, 18.0 ],
					"outlettype" : [ "float", "bang" ],
					"id" : "obj-88",
					"fontname" : "Arial",
					"htextcolor" : [ 0.870588, 0.870588, 0.870588, 1.0 ],
					"triscale" : 0.9,
					"bgcolor" : [ 0.866667, 0.866667, 0.866667, 1.0 ],
					"fontsize" : 10.0,
					"numinlets" : 1,
					"numoutlets" : 2
				}

			}
, 			{
				"box" : 				{
					"maxclass" : "comment",
					"text" : "RANDOM SPEED",
					"patching_rect" : [ 389.0, 577.0, 100.0, 18.0 ],
					"id" : "obj-89",
					"fontname" : "Arial",
					"fontsize" : 10.0,
					"numinlets" : 1,
					"numoutlets" : 0
				}

			}
, 			{
				"box" : 				{
					"maxclass" : "newobj",
					"text" : "randomizerMitchB",
					"linecount" : 2,
					"patching_rect" : [ 401.0, 627.0, 80.0, 27.0 ],
					"outlettype" : [ "float" ],
					"id" : "obj-90",
					"fontname" : "Arial",
					"fontsize" : 9.0,
					"numinlets" : 4,
					"numoutlets" : 1
				}

			}
, 			{
				"box" : 				{
					"maxclass" : "panel",
					"patching_rect" : [ 387.0, 575.0, 110.0, 19.0 ],
					"id" : "obj-91",
					"rounded" : 0,
					"bgcolor" : [ 0.905882, 0.905882, 0.905882, 1.0 ],
					"border" : 1,
					"numinlets" : 1,
					"numoutlets" : 0
				}

			}
, 			{
				"box" : 				{
					"maxclass" : "panel",
					"patching_rect" : [ 387.0, 581.0, 110.0, 32.0 ],
					"id" : "obj-92",
					"rounded" : 0,
					"bgcolor" : [ 0.74902, 0.74902, 0.74902, 1.0 ],
					"border" : 1,
					"numinlets" : 1,
					"numoutlets" : 0
				}

			}
, 			{
				"box" : 				{
					"maxclass" : "panel",
					"patching_rect" : [ 389.0, 623.0, 333.0, 28.0 ],
					"id" : "obj-93",
					"rounded" : 0,
					"bgcolor" : [ 0.517647, 0.517647, 0.517647, 1.0 ],
					"border" : 1,
					"numinlets" : 1,
					"numoutlets" : 0
				}

			}
, 			{
				"box" : 				{
					"maxclass" : "panel",
					"patching_rect" : [ 612.0, 575.0, 110.0, 19.0 ],
					"id" : "obj-94",
					"rounded" : 0,
					"bgcolor" : [ 0.905882, 0.905882, 0.905882, 1.0 ],
					"border" : 1,
					"numinlets" : 1,
					"numoutlets" : 0
				}

			}
, 			{
				"box" : 				{
					"maxclass" : "panel",
					"patching_rect" : [ 612.0, 581.0, 110.0, 32.0 ],
					"id" : "obj-95",
					"rounded" : 0,
					"bgcolor" : [ 0.74902, 0.74902, 0.74902, 1.0 ],
					"border" : 1,
					"numinlets" : 1,
					"numoutlets" : 0
				}

			}
, 			{
				"box" : 				{
					"maxclass" : "panel",
					"patching_rect" : [ 499.0, 575.0, 110.0, 19.0 ],
					"id" : "obj-96",
					"rounded" : 0,
					"bgcolor" : [ 0.905882, 0.905882, 0.905882, 1.0 ],
					"border" : 1,
					"numinlets" : 1,
					"numoutlets" : 0
				}

			}
, 			{
				"box" : 				{
					"maxclass" : "panel",
					"patching_rect" : [ 499.0, 581.0, 110.0, 32.0 ],
					"id" : "obj-97",
					"rounded" : 0,
					"bgcolor" : [ 0.74902, 0.74902, 0.74902, 1.0 ],
					"border" : 1,
					"numinlets" : 1,
					"numoutlets" : 0
				}

			}
, 			{
				"box" : 				{
					"maxclass" : "panel",
					"patching_rect" : [ 381.0, 546.0, 349.0, 114.0 ],
					"id" : "obj-98",
					"rounded" : 0,
					"bgcolor" : [ 0.87451, 0.87451, 0.87451, 1.0 ],
					"border" : 1,
					"numinlets" : 1,
					"numoutlets" : 0
				}

			}
, 			{
				"box" : 				{
					"maxclass" : "comment",
					"text" : "END",
					"patching_rect" : [ 261.0, 577.0, 41.0, 18.0 ],
					"id" : "obj-99",
					"fontname" : "Arial",
					"fontsize" : 10.0,
					"numinlets" : 1,
					"numoutlets" : 0
				}

			}
, 			{
				"box" : 				{
					"maxclass" : "toggle",
					"patching_rect" : [ 351.0, 551.0, 16.0, 16.0 ],
					"outlettype" : [ "int" ],
					"id" : "obj-100",
					"numinlets" : 1,
					"numoutlets" : 1
				}

			}
, 			{
				"box" : 				{
					"maxclass" : "comment",
					"text" : "TRAIN PULSE INTERVAL",
					"patching_rect" : [ 33.0, 435.0, 172.0, 23.0 ],
					"id" : "obj-101",
					"fontname" : "Arial",
					"fontsize" : 14.0,
					"numinlets" : 1,
					"numoutlets" : 0
				}

			}
, 			{
				"box" : 				{
					"maxclass" : "flonum",
					"patching_rect" : [ 37.0, 595.0, 79.0, 18.0 ],
					"outlettype" : [ "float", "bang" ],
					"id" : "obj-102",
					"fontname" : "Arial",
					"htextcolor" : [ 0.870588, 0.870588, 0.870588, 1.0 ],
					"triscale" : 0.9,
					"bgcolor" : [ 0.866667, 0.866667, 0.866667, 1.0 ],
					"fontsize" : 10.0,
					"numinlets" : 1,
					"numoutlets" : 2
				}

			}
, 			{
				"box" : 				{
					"maxclass" : "flonum",
					"patching_rect" : [ 149.0, 595.0, 79.0, 18.0 ],
					"outlettype" : [ "float", "bang" ],
					"id" : "obj-103",
					"fontname" : "Arial",
					"htextcolor" : [ 0.870588, 0.870588, 0.870588, 1.0 ],
					"triscale" : 0.9,
					"bgcolor" : [ 0.866667, 0.866667, 0.866667, 1.0 ],
					"fontsize" : 10.0,
					"numinlets" : 1,
					"numoutlets" : 2
				}

			}
, 			{
				"box" : 				{
					"maxclass" : "comment",
					"text" : "START",
					"patching_rect" : [ 148.0, 577.0, 46.0, 18.0 ],
					"id" : "obj-104",
					"fontname" : "Arial",
					"fontsize" : 10.0,
					"numinlets" : 1,
					"numoutlets" : 0
				}

			}
, 			{
				"box" : 				{
					"maxclass" : "flonum",
					"patching_rect" : [ 262.0, 595.0, 79.0, 18.0 ],
					"outlettype" : [ "float", "bang" ],
					"id" : "obj-105",
					"fontname" : "Arial",
					"htextcolor" : [ 0.870588, 0.870588, 0.870588, 1.0 ],
					"triscale" : 0.9,
					"bgcolor" : [ 0.866667, 0.866667, 0.866667, 1.0 ],
					"fontsize" : 10.0,
					"numinlets" : 1,
					"numoutlets" : 2
				}

			}
, 			{
				"box" : 				{
					"maxclass" : "comment",
					"text" : "RANDOM SPEED",
					"patching_rect" : [ 36.0, 577.0, 100.0, 18.0 ],
					"id" : "obj-106",
					"fontname" : "Arial",
					"fontsize" : 10.0,
					"numinlets" : 1,
					"numoutlets" : 0
				}

			}
, 			{
				"box" : 				{
					"maxclass" : "newobj",
					"text" : "randomizerMitchB",
					"linecount" : 2,
					"patching_rect" : [ 48.0, 627.0, 80.0, 27.0 ],
					"outlettype" : [ "float" ],
					"id" : "obj-107",
					"fontname" : "Arial",
					"fontsize" : 9.0,
					"numinlets" : 4,
					"numoutlets" : 1
				}

			}
, 			{
				"box" : 				{
					"maxclass" : "panel",
					"patching_rect" : [ 34.0, 575.0, 110.0, 19.0 ],
					"id" : "obj-108",
					"rounded" : 0,
					"bgcolor" : [ 0.905882, 0.905882, 0.905882, 1.0 ],
					"border" : 1,
					"numinlets" : 1,
					"numoutlets" : 0
				}

			}
, 			{
				"box" : 				{
					"maxclass" : "panel",
					"patching_rect" : [ 34.0, 581.0, 110.0, 32.0 ],
					"id" : "obj-109",
					"rounded" : 0,
					"bgcolor" : [ 0.74902, 0.74902, 0.74902, 1.0 ],
					"border" : 1,
					"numinlets" : 1,
					"numoutlets" : 0
				}

			}
, 			{
				"box" : 				{
					"maxclass" : "panel",
					"patching_rect" : [ 36.0, 623.0, 333.0, 28.0 ],
					"id" : "obj-110",
					"rounded" : 0,
					"bgcolor" : [ 0.517647, 0.517647, 0.517647, 1.0 ],
					"border" : 1,
					"numinlets" : 1,
					"numoutlets" : 0
				}

			}
, 			{
				"box" : 				{
					"maxclass" : "panel",
					"patching_rect" : [ 259.0, 575.0, 110.0, 19.0 ],
					"id" : "obj-111",
					"rounded" : 0,
					"bgcolor" : [ 0.905882, 0.905882, 0.905882, 1.0 ],
					"border" : 1,
					"numinlets" : 1,
					"numoutlets" : 0
				}

			}
, 			{
				"box" : 				{
					"maxclass" : "panel",
					"patching_rect" : [ 259.0, 581.0, 110.0, 32.0 ],
					"id" : "obj-112",
					"rounded" : 0,
					"bgcolor" : [ 0.74902, 0.74902, 0.74902, 1.0 ],
					"border" : 1,
					"numinlets" : 1,
					"numoutlets" : 0
				}

			}
, 			{
				"box" : 				{
					"maxclass" : "panel",
					"patching_rect" : [ 146.0, 575.0, 110.0, 19.0 ],
					"id" : "obj-113",
					"rounded" : 0,
					"bgcolor" : [ 0.905882, 0.905882, 0.905882, 1.0 ],
					"border" : 1,
					"numinlets" : 1,
					"numoutlets" : 0
				}

			}
, 			{
				"box" : 				{
					"maxclass" : "panel",
					"patching_rect" : [ 146.0, 581.0, 110.0, 32.0 ],
					"id" : "obj-114",
					"rounded" : 0,
					"bgcolor" : [ 0.74902, 0.74902, 0.74902, 1.0 ],
					"border" : 1,
					"numinlets" : 1,
					"numoutlets" : 0
				}

			}
, 			{
				"box" : 				{
					"maxclass" : "panel",
					"patching_rect" : [ 28.0, 546.0, 349.0, 114.0 ],
					"id" : "obj-115",
					"rounded" : 0,
					"bgcolor" : [ 0.87451, 0.87451, 0.87451, 1.0 ],
					"border" : 1,
					"numinlets" : 1,
					"numoutlets" : 0
				}

			}
, 			{
				"box" : 				{
					"maxclass" : "comment",
					"text" : "END",
					"patching_rect" : [ 615.0, 460.0, 41.0, 18.0 ],
					"id" : "obj-116",
					"fontname" : "Arial",
					"fontsize" : 10.0,
					"numinlets" : 1,
					"numoutlets" : 0
				}

			}
, 			{
				"box" : 				{
					"maxclass" : "toggle",
					"patching_rect" : [ 705.0, 434.0, 16.0, 16.0 ],
					"outlettype" : [ "int" ],
					"id" : "obj-117",
					"numinlets" : 1,
					"numoutlets" : 1
				}

			}
, 			{
				"box" : 				{
					"maxclass" : "comment",
					"text" : "GRAIN PULSE PITCH",
					"patching_rect" : [ 386.0, 435.0, 172.0, 23.0 ],
					"id" : "obj-118",
					"fontname" : "Arial",
					"fontsize" : 14.0,
					"numinlets" : 1,
					"numoutlets" : 0
				}

			}
, 			{
				"box" : 				{
					"maxclass" : "flonum",
					"patching_rect" : [ 391.0, 478.0, 79.0, 18.0 ],
					"outlettype" : [ "float", "bang" ],
					"id" : "obj-119",
					"fontname" : "Arial",
					"htextcolor" : [ 0.870588, 0.870588, 0.870588, 1.0 ],
					"triscale" : 0.9,
					"bgcolor" : [ 0.866667, 0.866667, 0.866667, 1.0 ],
					"fontsize" : 10.0,
					"numinlets" : 1,
					"numoutlets" : 2
				}

			}
, 			{
				"box" : 				{
					"maxclass" : "flonum",
					"patching_rect" : [ 503.0, 478.0, 79.0, 18.0 ],
					"outlettype" : [ "float", "bang" ],
					"id" : "obj-120",
					"fontname" : "Arial",
					"htextcolor" : [ 0.870588, 0.870588, 0.870588, 1.0 ],
					"triscale" : 0.9,
					"bgcolor" : [ 0.866667, 0.866667, 0.866667, 1.0 ],
					"fontsize" : 10.0,
					"numinlets" : 1,
					"numoutlets" : 2
				}

			}
, 			{
				"box" : 				{
					"maxclass" : "comment",
					"text" : "START",
					"patching_rect" : [ 502.0, 460.0, 46.0, 18.0 ],
					"id" : "obj-121",
					"fontname" : "Arial",
					"fontsize" : 10.0,
					"numinlets" : 1,
					"numoutlets" : 0
				}

			}
, 			{
				"box" : 				{
					"maxclass" : "flonum",
					"patching_rect" : [ 616.0, 478.0, 79.0, 18.0 ],
					"outlettype" : [ "float", "bang" ],
					"id" : "obj-122",
					"fontname" : "Arial",
					"htextcolor" : [ 0.870588, 0.870588, 0.870588, 1.0 ],
					"triscale" : 0.9,
					"bgcolor" : [ 0.866667, 0.866667, 0.866667, 1.0 ],
					"fontsize" : 10.0,
					"numinlets" : 1,
					"numoutlets" : 2
				}

			}
, 			{
				"box" : 				{
					"maxclass" : "comment",
					"text" : "RANDOM SPEED",
					"patching_rect" : [ 390.0, 460.0, 100.0, 18.0 ],
					"id" : "obj-123",
					"fontname" : "Arial",
					"fontsize" : 10.0,
					"numinlets" : 1,
					"numoutlets" : 0
				}

			}
, 			{
				"box" : 				{
					"maxclass" : "newobj",
					"text" : "randomizerMitchB",
					"linecount" : 2,
					"patching_rect" : [ 402.0, 510.0, 80.0, 27.0 ],
					"outlettype" : [ "float" ],
					"id" : "obj-124",
					"fontname" : "Arial",
					"fontsize" : 9.0,
					"numinlets" : 4,
					"numoutlets" : 1
				}

			}
, 			{
				"box" : 				{
					"maxclass" : "panel",
					"patching_rect" : [ 388.0, 458.0, 110.0, 19.0 ],
					"id" : "obj-125",
					"rounded" : 0,
					"bgcolor" : [ 0.905882, 0.905882, 0.905882, 1.0 ],
					"border" : 1,
					"numinlets" : 1,
					"numoutlets" : 0
				}

			}
, 			{
				"box" : 				{
					"maxclass" : "panel",
					"patching_rect" : [ 388.0, 464.0, 110.0, 32.0 ],
					"id" : "obj-126",
					"rounded" : 0,
					"bgcolor" : [ 0.74902, 0.74902, 0.74902, 1.0 ],
					"border" : 1,
					"numinlets" : 1,
					"numoutlets" : 0
				}

			}
, 			{
				"box" : 				{
					"maxclass" : "panel",
					"patching_rect" : [ 390.0, 506.0, 333.0, 28.0 ],
					"id" : "obj-127",
					"rounded" : 0,
					"bgcolor" : [ 0.517647, 0.517647, 0.517647, 1.0 ],
					"border" : 1,
					"numinlets" : 1,
					"numoutlets" : 0
				}

			}
, 			{
				"box" : 				{
					"maxclass" : "panel",
					"patching_rect" : [ 613.0, 458.0, 110.0, 19.0 ],
					"id" : "obj-128",
					"rounded" : 0,
					"bgcolor" : [ 0.905882, 0.905882, 0.905882, 1.0 ],
					"border" : 1,
					"numinlets" : 1,
					"numoutlets" : 0
				}

			}
, 			{
				"box" : 				{
					"maxclass" : "panel",
					"patching_rect" : [ 613.0, 464.0, 110.0, 32.0 ],
					"id" : "obj-129",
					"rounded" : 0,
					"bgcolor" : [ 0.74902, 0.74902, 0.74902, 1.0 ],
					"border" : 1,
					"numinlets" : 1,
					"numoutlets" : 0
				}

			}
, 			{
				"box" : 				{
					"maxclass" : "panel",
					"patching_rect" : [ 500.0, 458.0, 110.0, 19.0 ],
					"id" : "obj-130",
					"rounded" : 0,
					"bgcolor" : [ 0.905882, 0.905882, 0.905882, 1.0 ],
					"border" : 1,
					"numinlets" : 1,
					"numoutlets" : 0
				}

			}
, 			{
				"box" : 				{
					"maxclass" : "panel",
					"patching_rect" : [ 500.0, 464.0, 110.0, 32.0 ],
					"id" : "obj-131",
					"rounded" : 0,
					"bgcolor" : [ 0.74902, 0.74902, 0.74902, 1.0 ],
					"border" : 1,
					"numinlets" : 1,
					"numoutlets" : 0
				}

			}
, 			{
				"box" : 				{
					"maxclass" : "panel",
					"patching_rect" : [ 382.0, 429.0, 349.0, 114.0 ],
					"id" : "obj-132",
					"rounded" : 0,
					"bgcolor" : [ 0.87451, 0.87451, 0.87451, 1.0 ],
					"border" : 1,
					"numinlets" : 1,
					"numoutlets" : 0
				}

			}
, 			{
				"box" : 				{
					"maxclass" : "comment",
					"text" : "END",
					"patching_rect" : [ 262.0, 460.0, 41.0, 18.0 ],
					"id" : "obj-133",
					"fontname" : "Arial",
					"fontsize" : 10.0,
					"numinlets" : 1,
					"numoutlets" : 0
				}

			}
, 			{
				"box" : 				{
					"maxclass" : "toggle",
					"patching_rect" : [ 352.0, 434.0, 16.0, 16.0 ],
					"outlettype" : [ "int" ],
					"id" : "obj-134",
					"numinlets" : 1,
					"numoutlets" : 1
				}

			}
, 			{
				"box" : 				{
					"maxclass" : "flonum",
					"patching_rect" : [ 38.0, 478.0, 79.0, 18.0 ],
					"outlettype" : [ "float", "bang" ],
					"id" : "obj-135",
					"fontname" : "Arial",
					"htextcolor" : [ 0.870588, 0.870588, 0.870588, 1.0 ],
					"triscale" : 0.9,
					"bgcolor" : [ 0.866667, 0.866667, 0.866667, 1.0 ],
					"fontsize" : 10.0,
					"numinlets" : 1,
					"numoutlets" : 2
				}

			}
, 			{
				"box" : 				{
					"maxclass" : "flonum",
					"patching_rect" : [ 150.0, 478.0, 79.0, 18.0 ],
					"outlettype" : [ "float", "bang" ],
					"id" : "obj-136",
					"fontname" : "Arial",
					"htextcolor" : [ 0.870588, 0.870588, 0.870588, 1.0 ],
					"triscale" : 0.9,
					"bgcolor" : [ 0.866667, 0.866667, 0.866667, 1.0 ],
					"fontsize" : 10.0,
					"numinlets" : 1,
					"numoutlets" : 2
				}

			}
, 			{
				"box" : 				{
					"maxclass" : "comment",
					"text" : "START",
					"patching_rect" : [ 149.0, 460.0, 46.0, 18.0 ],
					"id" : "obj-137",
					"fontname" : "Arial",
					"fontsize" : 10.0,
					"numinlets" : 1,
					"numoutlets" : 0
				}

			}
, 			{
				"box" : 				{
					"maxclass" : "flonum",
					"patching_rect" : [ 263.0, 478.0, 79.0, 18.0 ],
					"outlettype" : [ "float", "bang" ],
					"id" : "obj-138",
					"fontname" : "Arial",
					"htextcolor" : [ 0.870588, 0.870588, 0.870588, 1.0 ],
					"triscale" : 0.9,
					"bgcolor" : [ 0.866667, 0.866667, 0.866667, 1.0 ],
					"fontsize" : 10.0,
					"numinlets" : 1,
					"numoutlets" : 2
				}

			}
, 			{
				"box" : 				{
					"maxclass" : "comment",
					"text" : "RANDOM SPEED",
					"patching_rect" : [ 37.0, 460.0, 100.0, 18.0 ],
					"id" : "obj-139",
					"fontname" : "Arial",
					"fontsize" : 10.0,
					"numinlets" : 1,
					"numoutlets" : 0
				}

			}
, 			{
				"box" : 				{
					"maxclass" : "newobj",
					"text" : "randomizerMitchB",
					"linecount" : 2,
					"patching_rect" : [ 49.0, 510.0, 80.0, 27.0 ],
					"outlettype" : [ "float" ],
					"id" : "obj-140",
					"fontname" : "Arial",
					"fontsize" : 9.0,
					"numinlets" : 4,
					"numoutlets" : 1
				}

			}
, 			{
				"box" : 				{
					"maxclass" : "newobj",
					"text" : "gate~",
					"patching_rect" : [ 757.0, 516.0, 61.0, 18.0 ],
					"outlettype" : [ "signal" ],
					"id" : "obj-141",
					"fontname" : "Arial",
					"fontsize" : 10.0,
					"numinlets" : 2,
					"numoutlets" : 1
				}

			}
, 			{
				"box" : 				{
					"maxclass" : "newobj",
					"text" : "train~",
					"patching_rect" : [ 760.0, 472.0, 60.0, 18.0 ],
					"outlettype" : [ "signal", "bang" ],
					"id" : "obj-142",
					"fontname" : "Arial",
					"fontsize" : 10.0,
					"numinlets" : 3,
					"numoutlets" : 2
				}

			}
, 			{
				"box" : 				{
					"maxclass" : "newobj",
					"text" : "buffer~ sampleB2 gauss",
					"patching_rect" : [ 337.0, 403.0, 119.0, 18.0 ],
					"outlettype" : [ "float", "bang" ],
					"id" : "obj-143",
					"fontname" : "Arial",
					"fontsize" : 10.0,
					"numinlets" : 1,
					"numoutlets" : 2
				}

			}
, 			{
				"box" : 				{
					"maxclass" : "newobj",
					"text" : "buffer~ sampleB1 prabhali.wav",
					"patching_rect" : [ 554.0, 402.0, 153.0, 18.0 ],
					"outlettype" : [ "float", "bang" ],
					"id" : "obj-144",
					"fontname" : "Arial",
					"fontsize" : 10.0,
					"numinlets" : 1,
					"numoutlets" : 2
				}

			}
, 			{
				"box" : 				{
					"maxclass" : "newobj",
					"text" : "grain.pulse~ sampleB1 sampleB2",
					"patching_rect" : [ 741.0, 553.0, 165.0, 18.0 ],
					"outlettype" : [ "signal", "signal", "" ],
					"id" : "obj-145",
					"fontname" : "Arial",
					"fontsize" : 10.0,
					"numinlets" : 4,
					"numoutlets" : 3
				}

			}
, 			{
				"box" : 				{
					"maxclass" : "toggle",
					"patching_rect" : [ 880.0, 392.0, 31.0, 31.0 ],
					"outlettype" : [ "int" ],
					"id" : "obj-146",
					"numinlets" : 1,
					"numoutlets" : 1
				}

			}
, 			{
				"box" : 				{
					"maxclass" : "panel",
					"patching_rect" : [ 35.0, 458.0, 110.0, 19.0 ],
					"id" : "obj-147",
					"rounded" : 0,
					"bgcolor" : [ 0.905882, 0.905882, 0.905882, 1.0 ],
					"border" : 1,
					"numinlets" : 1,
					"numoutlets" : 0
				}

			}
, 			{
				"box" : 				{
					"maxclass" : "panel",
					"patching_rect" : [ 35.0, 464.0, 110.0, 32.0 ],
					"id" : "obj-148",
					"rounded" : 0,
					"bgcolor" : [ 0.74902, 0.74902, 0.74902, 1.0 ],
					"border" : 1,
					"numinlets" : 1,
					"numoutlets" : 0
				}

			}
, 			{
				"box" : 				{
					"maxclass" : "panel",
					"patching_rect" : [ 37.0, 506.0, 333.0, 28.0 ],
					"id" : "obj-149",
					"rounded" : 0,
					"bgcolor" : [ 0.517647, 0.517647, 0.517647, 1.0 ],
					"border" : 1,
					"numinlets" : 1,
					"numoutlets" : 0
				}

			}
, 			{
				"box" : 				{
					"maxclass" : "panel",
					"patching_rect" : [ 260.0, 458.0, 110.0, 19.0 ],
					"id" : "obj-150",
					"rounded" : 0,
					"bgcolor" : [ 0.905882, 0.905882, 0.905882, 1.0 ],
					"border" : 1,
					"numinlets" : 1,
					"numoutlets" : 0
				}

			}
, 			{
				"box" : 				{
					"maxclass" : "panel",
					"patching_rect" : [ 260.0, 464.0, 110.0, 32.0 ],
					"id" : "obj-151",
					"rounded" : 0,
					"bgcolor" : [ 0.74902, 0.74902, 0.74902, 1.0 ],
					"border" : 1,
					"numinlets" : 1,
					"numoutlets" : 0
				}

			}
, 			{
				"box" : 				{
					"maxclass" : "panel",
					"patching_rect" : [ 147.0, 458.0, 110.0, 19.0 ],
					"id" : "obj-152",
					"rounded" : 0,
					"bgcolor" : [ 0.905882, 0.905882, 0.905882, 1.0 ],
					"border" : 1,
					"numinlets" : 1,
					"numoutlets" : 0
				}

			}
, 			{
				"box" : 				{
					"maxclass" : "panel",
					"patching_rect" : [ 147.0, 464.0, 110.0, 32.0 ],
					"id" : "obj-153",
					"rounded" : 0,
					"bgcolor" : [ 0.74902, 0.74902, 0.74902, 1.0 ],
					"border" : 1,
					"numinlets" : 1,
					"numoutlets" : 0
				}

			}
, 			{
				"box" : 				{
					"maxclass" : "panel",
					"patching_rect" : [ 29.0, 429.0, 349.0, 114.0 ],
					"id" : "obj-154",
					"rounded" : 0,
					"bgcolor" : [ 0.87451, 0.87451, 0.87451, 1.0 ],
					"border" : 1,
					"numinlets" : 1,
					"numoutlets" : 0
				}

			}
, 			{
				"box" : 				{
					"maxclass" : "ezdac~",
					"patching_rect" : [ 916.0, 692.0, 33.0, 33.0 ],
					"id" : "obj-155",
					"numinlets" : 2,
					"numoutlets" : 0
				}

			}
, 			{
				"box" : 				{
					"maxclass" : "comment",
					"text" : "GRANULAR",
					"patching_rect" : [ 744.0, 438.0, 100.0, 17.0 ],
					"id" : "obj-156",
					"fontname" : "Arial",
					"fontsize" : 9.0,
					"numinlets" : 1,
					"numoutlets" : 0
				}

			}
, 			{
				"box" : 				{
					"maxclass" : "panel",
					"patching_rect" : [ 735.0, 428.0, 175.0, 233.0 ],
					"id" : "obj-157",
					"rounded" : 0,
					"bgcolor" : [ 0.87451, 0.87451, 0.87451, 1.0 ],
					"border" : 1,
					"numinlets" : 1,
					"numoutlets" : 0
				}

			}
, 			{
				"box" : 				{
					"maxclass" : "panel",
					"patching_rect" : [ 19.0, 389.0, 900.0, 284.0 ],
					"id" : "obj-158",
					"rounded" : 0,
					"bgcolor" : [ 0.419608, 0.419608, 0.419608, 1.0 ],
					"border" : 1,
					"numinlets" : 1,
					"numoutlets" : 0
				}

			}
, 			{
				"box" : 				{
					"maxclass" : "comment",
					"text" : "MITCH GREER\nGRANULAR SYNTHESIS",
					"linecount" : 2,
					"patching_rect" : [ 49.0, 28.0, 274.0, 27.0 ],
					"id" : "obj-159",
					"fontname" : "Arial",
					"fontsize" : 9.0,
					"numinlets" : 1,
					"numoutlets" : 0
				}

			}
 ],
		"lines" : [ 			{
				"patchline" : 				{
					"source" : [ "obj-67", 0 ],
					"destination" : [ "obj-155", 1 ],
					"hidden" : 0,
					"midpoints" : [ 750.5, 384.0, 939.5, 384.0 ]
				}

			}
, 			{
				"patchline" : 				{
					"source" : [ "obj-145", 0 ],
					"destination" : [ "obj-155", 1 ],
					"hidden" : 0,
					"midpoints" : [ 750.5, 676.0, 939.5, 676.0 ]
				}

			}
, 			{
				"patchline" : 				{
					"source" : [ "obj-67", 0 ],
					"destination" : [ "obj-155", 0 ],
					"hidden" : 0,
					"midpoints" : [ 750.5, 384.0, 925.5, 384.0 ]
				}

			}
, 			{
				"patchline" : 				{
					"source" : [ "obj-145", 0 ],
					"destination" : [ "obj-155", 0 ],
					"hidden" : 0,
					"midpoints" : [ 750.5, 676.0, 925.5, 676.0 ]
				}

			}
, 			{
				"patchline" : 				{
					"source" : [ "obj-124", 0 ],
					"destination" : [ "obj-145", 3 ],
					"hidden" : 0,
					"midpoints" : [ 411.5, 537.0, 744.0, 537.0, 744.0, 461.0, 896.5, 461.0 ]
				}

			}
, 			{
				"patchline" : 				{
					"source" : [ "obj-46", 0 ],
					"destination" : [ "obj-67", 3 ],
					"hidden" : 0,
					"midpoints" : [ 411.5, 243.0, 744.0, 243.0, 744.0, 167.0, 896.5, 167.0 ]
				}

			}
, 			{
				"patchline" : 				{
					"source" : [ "obj-107", 0 ],
					"destination" : [ "obj-145", 2 ],
					"hidden" : 0,
					"midpoints" : [ 57.5, 656.0, 381.0, 656.0, 381.0, 537.0, 748.0, 537.0, 748.0, 461.0, 847.833313, 461.0 ]
				}

			}
, 			{
				"patchline" : 				{
					"source" : [ "obj-29", 0 ],
					"destination" : [ "obj-67", 2 ],
					"hidden" : 0,
					"midpoints" : [ 57.5, 362.0, 381.0, 362.0, 381.0, 243.0, 748.0, 243.0, 748.0, 167.0, 847.833313, 167.0 ]
				}

			}
, 			{
				"patchline" : 				{
					"source" : [ "obj-142", 0 ],
					"destination" : [ "obj-141", 1 ],
					"hidden" : 0,
					"midpoints" : [ 769.5, 504.0, 808.5, 504.0 ]
				}

			}
, 			{
				"patchline" : 				{
					"source" : [ "obj-64", 0 ],
					"destination" : [ "obj-63", 1 ],
					"hidden" : 0,
					"midpoints" : [ 769.5, 210.0, 808.5, 210.0 ]
				}

			}
, 			{
				"patchline" : 				{
					"source" : [ "obj-90", 0 ],
					"destination" : [ "obj-145", 1 ],
					"hidden" : 0,
					"midpoints" : [ 410.5, 656.0, 748.0, 656.0, 748.0, 461.0, 834.0, 461.0, 834.0, 540.0, 799.166687, 540.0 ]
				}

			}
, 			{
				"patchline" : 				{
					"source" : [ "obj-12", 0 ],
					"destination" : [ "obj-67", 1 ],
					"hidden" : 0,
					"midpoints" : [ 410.5, 362.0, 748.0, 362.0, 748.0, 167.0, 834.0, 167.0, 834.0, 246.0, 799.166687, 246.0 ]
				}

			}
, 			{
				"patchline" : 				{
					"source" : [ "obj-140", 0 ],
					"destination" : [ "obj-142", 0 ],
					"hidden" : 0,
					"midpoints" : [ 58.5, 538.0, 749.0, 538.0, 749.0, 462.0, 769.5, 462.0 ]
				}

			}
, 			{
				"patchline" : 				{
					"source" : [ "obj-62", 0 ],
					"destination" : [ "obj-64", 0 ],
					"hidden" : 0,
					"midpoints" : [ 58.5, 244.0, 749.0, 244.0, 749.0, 168.0, 769.5, 168.0 ]
				}

			}
, 			{
				"patchline" : 				{
					"source" : [ "obj-146", 0 ],
					"destination" : [ "obj-141", 0 ],
					"hidden" : 0,
					"midpoints" : [ 889.5, 426.0, 731.0, 426.0, 731.0, 511.0, 766.5, 511.0 ]
				}

			}
, 			{
				"patchline" : 				{
					"source" : [ "obj-68", 0 ],
					"destination" : [ "obj-63", 0 ],
					"hidden" : 0,
					"midpoints" : [ 889.5, 132.0, 731.0, 132.0, 731.0, 217.0, 766.5, 217.0 ]
				}

			}
, 			{
				"patchline" : 				{
					"source" : [ "obj-141", 0 ],
					"destination" : [ "obj-145", 0 ],
					"hidden" : 0,
					"midpoints" : [  ]
				}

			}
, 			{
				"patchline" : 				{
					"source" : [ "obj-63", 0 ],
					"destination" : [ "obj-67", 0 ],
					"hidden" : 0,
					"midpoints" : [  ]
				}

			}
, 			{
				"patchline" : 				{
					"source" : [ "obj-146", 0 ],
					"destination" : [ "obj-117", 0 ],
					"hidden" : 0,
					"midpoints" : [ 889.5, 427.0, 714.5, 427.0 ]
				}

			}
, 			{
				"patchline" : 				{
					"source" : [ "obj-68", 0 ],
					"destination" : [ "obj-39", 0 ],
					"hidden" : 0,
					"midpoints" : [ 889.5, 133.0, 714.5, 133.0 ]
				}

			}
, 			{
				"patchline" : 				{
					"source" : [ "obj-146", 0 ],
					"destination" : [ "obj-83", 0 ],
					"hidden" : 0,
					"midpoints" : [ 889.5, 426.0, 729.0, 426.0, 729.0, 552.0 ]
				}

			}
, 			{
				"patchline" : 				{
					"source" : [ "obj-68", 0 ],
					"destination" : [ "obj-5", 0 ],
					"hidden" : 0,
					"midpoints" : [ 889.5, 132.0, 729.0, 132.0, 729.0, 258.0 ]
				}

			}
, 			{
				"patchline" : 				{
					"source" : [ "obj-122", 0 ],
					"destination" : [ "obj-124", 3 ],
					"hidden" : 0,
					"midpoints" : [ 625.5, 502.0, 472.5, 502.0 ]
				}

			}
, 			{
				"patchline" : 				{
					"source" : [ "obj-44", 0 ],
					"destination" : [ "obj-46", 3 ],
					"hidden" : 0,
					"midpoints" : [ 625.5, 208.0, 472.5, 208.0 ]
				}

			}
, 			{
				"patchline" : 				{
					"source" : [ "obj-88", 0 ],
					"destination" : [ "obj-90", 3 ],
					"hidden" : 0,
					"midpoints" : [ 624.5, 619.0, 471.5, 619.0 ]
				}

			}
, 			{
				"patchline" : 				{
					"source" : [ "obj-10", 0 ],
					"destination" : [ "obj-12", 3 ],
					"hidden" : 0,
					"midpoints" : [ 624.5, 325.0, 471.5, 325.0 ]
				}

			}
, 			{
				"patchline" : 				{
					"source" : [ "obj-120", 0 ],
					"destination" : [ "obj-124", 2 ],
					"hidden" : 0,
					"midpoints" : [ 512.5, 502.0, 452.166656, 502.0 ]
				}

			}
, 			{
				"patchline" : 				{
					"source" : [ "obj-42", 0 ],
					"destination" : [ "obj-46", 2 ],
					"hidden" : 0,
					"midpoints" : [ 512.5, 208.0, 452.166656, 208.0 ]
				}

			}
, 			{
				"patchline" : 				{
					"source" : [ "obj-86", 0 ],
					"destination" : [ "obj-90", 2 ],
					"hidden" : 0,
					"midpoints" : [ 511.5, 619.0, 451.166656, 619.0 ]
				}

			}
, 			{
				"patchline" : 				{
					"source" : [ "obj-8", 0 ],
					"destination" : [ "obj-12", 2 ],
					"hidden" : 0,
					"midpoints" : [ 511.5, 325.0, 451.166656, 325.0 ]
				}

			}
, 			{
				"patchline" : 				{
					"source" : [ "obj-119", 0 ],
					"destination" : [ "obj-124", 1 ],
					"hidden" : 0,
					"midpoints" : [ 400.5, 502.0, 431.833344, 502.0 ]
				}

			}
, 			{
				"patchline" : 				{
					"source" : [ "obj-41", 0 ],
					"destination" : [ "obj-46", 1 ],
					"hidden" : 0,
					"midpoints" : [ 400.5, 208.0, 431.833344, 208.0 ]
				}

			}
, 			{
				"patchline" : 				{
					"source" : [ "obj-85", 0 ],
					"destination" : [ "obj-90", 1 ],
					"hidden" : 0,
					"midpoints" : [ 399.5, 619.0, 430.833344, 619.0 ]
				}

			}
, 			{
				"patchline" : 				{
					"source" : [ "obj-7", 0 ],
					"destination" : [ "obj-12", 1 ],
					"hidden" : 0,
					"midpoints" : [ 399.5, 325.0, 430.833344, 325.0 ]
				}

			}
, 			{
				"patchline" : 				{
					"source" : [ "obj-117", 0 ],
					"destination" : [ "obj-124", 0 ],
					"hidden" : 0,
					"midpoints" : [ 714.5, 453.0, 727.0, 453.0, 727.0, 502.0, 411.5, 502.0 ]
				}

			}
, 			{
				"patchline" : 				{
					"source" : [ "obj-39", 0 ],
					"destination" : [ "obj-46", 0 ],
					"hidden" : 0,
					"midpoints" : [ 714.5, 159.0, 727.0, 159.0, 727.0, 208.0, 411.5, 208.0 ]
				}

			}
, 			{
				"patchline" : 				{
					"source" : [ "obj-83", 0 ],
					"destination" : [ "obj-90", 0 ],
					"hidden" : 0,
					"midpoints" : [ 713.5, 570.0, 726.0, 570.0, 726.0, 620.0, 410.5, 620.0 ]
				}

			}
, 			{
				"patchline" : 				{
					"source" : [ "obj-5", 0 ],
					"destination" : [ "obj-12", 0 ],
					"hidden" : 0,
					"midpoints" : [ 713.5, 276.0, 726.0, 276.0, 726.0, 325.0, 410.5, 325.0 ]
				}

			}
, 			{
				"patchline" : 				{
					"source" : [ "obj-146", 0 ],
					"destination" : [ "obj-134", 0 ],
					"hidden" : 0,
					"midpoints" : [ 889.5, 426.0, 361.5, 426.0 ]
				}

			}
, 			{
				"patchline" : 				{
					"source" : [ "obj-68", 0 ],
					"destination" : [ "obj-56", 0 ],
					"hidden" : 0,
					"midpoints" : [ 889.5, 132.0, 361.5, 132.0 ]
				}

			}
, 			{
				"patchline" : 				{
					"source" : [ "obj-146", 0 ],
					"destination" : [ "obj-100", 0 ],
					"hidden" : 0,
					"midpoints" : [ 889.5, 424.0, 374.0, 424.0, 374.0, 552.0 ]
				}

			}
, 			{
				"patchline" : 				{
					"source" : [ "obj-68", 0 ],
					"destination" : [ "obj-22", 0 ],
					"hidden" : 0,
					"midpoints" : [ 889.5, 130.0, 374.0, 130.0, 374.0, 258.0 ]
				}

			}
, 			{
				"patchline" : 				{
					"source" : [ "obj-138", 0 ],
					"destination" : [ "obj-140", 3 ],
					"hidden" : 0,
					"midpoints" : [ 272.5, 502.0, 119.5, 502.0 ]
				}

			}
, 			{
				"patchline" : 				{
					"source" : [ "obj-60", 0 ],
					"destination" : [ "obj-62", 3 ],
					"hidden" : 0,
					"midpoints" : [ 272.5, 208.0, 119.5, 208.0 ]
				}

			}
, 			{
				"patchline" : 				{
					"source" : [ "obj-105", 0 ],
					"destination" : [ "obj-107", 3 ],
					"hidden" : 0,
					"midpoints" : [ 271.5, 619.0, 118.5, 619.0 ]
				}

			}
, 			{
				"patchline" : 				{
					"source" : [ "obj-27", 0 ],
					"destination" : [ "obj-29", 3 ],
					"hidden" : 0,
					"midpoints" : [ 271.5, 325.0, 118.5, 325.0 ]
				}

			}
, 			{
				"patchline" : 				{
					"source" : [ "obj-136", 0 ],
					"destination" : [ "obj-140", 2 ],
					"hidden" : 0,
					"midpoints" : [ 159.5, 502.0, 99.166664, 502.0 ]
				}

			}
, 			{
				"patchline" : 				{
					"source" : [ "obj-58", 0 ],
					"destination" : [ "obj-62", 2 ],
					"hidden" : 0,
					"midpoints" : [ 159.5, 208.0, 99.166664, 208.0 ]
				}

			}
, 			{
				"patchline" : 				{
					"source" : [ "obj-103", 0 ],
					"destination" : [ "obj-107", 2 ],
					"hidden" : 0,
					"midpoints" : [ 158.5, 619.0, 98.166664, 619.0 ]
				}

			}
, 			{
				"patchline" : 				{
					"source" : [ "obj-25", 0 ],
					"destination" : [ "obj-29", 2 ],
					"hidden" : 0,
					"midpoints" : [ 158.5, 325.0, 98.166664, 325.0 ]
				}

			}
, 			{
				"patchline" : 				{
					"source" : [ "obj-135", 0 ],
					"destination" : [ "obj-140", 1 ],
					"hidden" : 0,
					"midpoints" : [ 47.5, 502.0, 78.833336, 502.0 ]
				}

			}
, 			{
				"patchline" : 				{
					"source" : [ "obj-57", 0 ],
					"destination" : [ "obj-62", 1 ],
					"hidden" : 0,
					"midpoints" : [ 47.5, 208.0, 78.833336, 208.0 ]
				}

			}
, 			{
				"patchline" : 				{
					"source" : [ "obj-102", 0 ],
					"destination" : [ "obj-107", 1 ],
					"hidden" : 0,
					"midpoints" : [ 46.5, 619.0, 77.833336, 619.0 ]
				}

			}
, 			{
				"patchline" : 				{
					"source" : [ "obj-24", 0 ],
					"destination" : [ "obj-29", 1 ],
					"hidden" : 0,
					"midpoints" : [ 46.5, 325.0, 77.833336, 325.0 ]
				}

			}
, 			{
				"patchline" : 				{
					"source" : [ "obj-134", 0 ],
					"destination" : [ "obj-140", 0 ],
					"hidden" : 0,
					"midpoints" : [ 361.5, 453.0, 374.0, 453.0, 374.0, 502.0, 58.5, 502.0 ]
				}

			}
, 			{
				"patchline" : 				{
					"source" : [ "obj-56", 0 ],
					"destination" : [ "obj-62", 0 ],
					"hidden" : 0,
					"midpoints" : [ 361.5, 159.0, 374.0, 159.0, 374.0, 208.0, 58.5, 208.0 ]
				}

			}
, 			{
				"patchline" : 				{
					"source" : [ "obj-100", 0 ],
					"destination" : [ "obj-107", 0 ],
					"hidden" : 0,
					"midpoints" : [ 360.5, 570.0, 373.0, 570.0, 373.0, 619.0, 57.5, 619.0 ]
				}

			}
, 			{
				"patchline" : 				{
					"source" : [ "obj-22", 0 ],
					"destination" : [ "obj-29", 0 ],
					"hidden" : 0,
					"midpoints" : [ 360.5, 276.0, 373.0, 276.0, 373.0, 325.0, 57.5, 325.0 ]
				}

			}
 ]
	}

}
